# xmcd
#
# Track frame offsets: 
#        150
#        18093
#        33623
#        51302
#        67647
#        82067
#        93427
#        102777
#        117274
#        137651
#        153856
#        168126
#
# Disc length: 2453 seconds
#
# Revision: 0
# Processed by: cddbd v1.5.2PL0 Copyright (c) Steve Scherf et al.
# Submitted via: ExactAudioCopy v0.99pb5
#
DISCID=8b09930c
DTITLE=The Bar Room Troubadours - Live At Hammerstone's
DYEAR=2011
DGENRE=Blues
TTITLE0=Heads Up
TTITLE1=Rich Woman
TTITLE2=Tell Me What I Want To Hear
TTITLE3=You Ain't Too Old
TTITLE4=Good Time Charlie
TTITLE5=I Thought It Would Be Me
TTITLE6=Good Gumbo
TTITLE7=East Side House Party
TTITLE8=Cabin Fever
TTITLE9=I Remember You
TTITLE10=Soulard Mardi Gras
TTITLE11=Crawl
EXTD=
EXTT0=
EXTT1=
EXTT2=
EXTT3=
EXTT4=
EXTT5=
EXTT6=
EXTT7=
EXTT8=
EXTT9=
EXTT10=
EXTT11=
PLAYORDER=
